<?xml version="1.0" encoding="utf-8"?>
<!-- Generator: Adobe Illustrator 23.0.3, SVG Export Plug-In . SVG Version: 6.00 Build 0)  -->
<svg version="1.1" id="Layer_1" xmlns="http://www.w3.org/2000/svg" xmlns:xlink="http://www.w3.org/1999/xlink" x="0px" y="0px"
	 viewBox="0 0 100 44.4" style="enable-background:new 0 0 100 44.4;" xml:space="preserve">
<style type="text/css">
	.st0{enable-background:new    ;}
	.st1{fill:#414042;}
	.st2{fill:url(#SVGID_1_);}
	.st3{fill:url(#SVGID_2_);}
	.st4{fill:url(#SVGID_3_);}
</style>
<title>Power City Logo</title>
<g>
	<g class="st0">
		<path class="st1" d="M58,13.2c2,0,3.4,1.6,3.4,4.2c0,2.6-1.8,4.3-4,4.3c-0.5,0-1.1-0.1-1.6-0.3V25h-2.6V13.6l2.6-0.3c0,0,0,1,0,1
			C56.2,13.8,56.9,13.2,58,13.2z M55.7,19.4c0.3,0.2,0.7,0.3,1.2,0.3c1.1,0,1.7-0.9,1.7-2.2c0-1.4-0.6-2.2-1.6-2.2
			c-0.6,0-1,0.3-1.3,0.5C55.7,15.8,55.7,19.4,55.7,19.4z"/>
	</g>
	<g class="st0">
		<path class="st1" d="M66.6,21.6c-2.4,0-4.2-1.5-4.2-4.2s1.9-4.2,4.3-4.2s4.2,1.6,4.2,4.2C70.9,20.1,69,21.6,66.6,21.6z M66.6,15.2
			c-1,0-1.6,0.9-1.6,2.3s0.6,2.2,1.6,2.2c1,0,1.6-0.9,1.6-2.3C68.3,16.1,67.7,15.2,66.6,15.2z"/>
		<path class="st1" d="M73.7,21.5l-2.3-8h2.7l1,5.3l1.4-5.3h2.8l1.4,5.2l1-5.2h2.7l-2.3,8h-2.7l-1.6-5.2l-1.6,5.2H73.7z"/>
	</g>
	<g class="st0">
		<path class="st1" d="M87.5,18.1c0.1,1,0.8,1.6,2.1,1.6c0.9,0,1.8-0.3,2.6-0.8l0.3,2c-0.8,0.4-1.9,0.6-3.1,0.6
			c-2.7,0-4.4-1.5-4.4-4.2c0-2.6,1.7-4.2,4.3-4.2c2.3,0,3.5,1.4,3.5,3.3c0,0.4-0.1,1-0.2,1.4L87.5,18.1L87.5,18.1z M90.2,16.7
			c0,0,0-0.1,0-0.2c0-1-0.4-1.6-1.2-1.6c-0.9,0-1.5,0.8-1.6,1.6L90.2,16.7z"/>
		<path class="st1" d="M96.8,21.4h-2.6v-7.8l2.6-0.3v1.1c0.4-0.8,1-1.2,1.9-1.2c0.4,0,0.9,0.1,1.3,0.3l-0.5,2.3
			c-0.3-0.2-0.6-0.3-1-0.3c-0.6,0-1.2,0.3-1.7,1.1V21.4z"/>
	</g>
	<g class="st0">
		<path class="st1" d="M57,35.5c-2.6,0-4.3-1.5-4.3-4.2c0-2.6,1.7-4.2,4.3-4.2c1.1,0,2.2,0.3,2.9,0.7l-0.5,2
			c-0.6-0.3-1.4-0.6-2.1-0.6c-1.3,0-2,0.9-2,2.2c0,1.4,0.8,2.2,2,2.2c0.8,0,1.5-0.3,2.1-0.6l0.4,2C59.2,35.2,58.1,35.5,57,35.5z"/>
		<path class="st1" d="M62.7,26.1c-1,0-1.6-0.5-1.6-1.4c0-1,0.6-1.4,1.6-1.4c1,0,1.6,0.5,1.6,1.4C64.2,25.6,63.6,26.1,62.7,26.1z
			 M61.4,35.2v-7.8l2.6-0.3v8.1H61.4z"/>
		<path class="st1" d="M69.1,35.5c-2,0-3-0.8-2.9-2.9l0.1-3L65,29.4l0.1-1.6l1.2-0.4v-1.8h2.5v1.9h2l-0.1,2.1h-2.1l-0.1,2.9
			c0,0.7,0.4,1,1,1c0.3,0,0.7-0.1,1-0.2l0.3,2.1C70.4,35.3,69.8,35.5,69.1,35.5z"/>
		<path class="st1" d="M77.2,34.8l-0.4,1c-0.8,2.3-1.8,3-3.5,3c-0.9,0-1.6-0.2-2.3-0.5l0.8-2c0.5,0.3,0.8,0.3,1.2,0.3
			c0.5,0,0.8-0.2,1.1-1l0.3-0.6l-3.1-7.9H74l1.6,5.2l1.6-5.2H80L77.2,34.8z"/>
	</g>
	
		<linearGradient id="SVGID_1_" gradientUnits="userSpaceOnUse" x1="71.1219" y1="1224.9899" x2="80.732" y2="1230.8999" gradientTransform="matrix(0.41 -0.91 -0.91 -0.41 1111.3552 617.0725)">
		<stop  offset="0" style="stop-color:#EF4136"/>
		<stop  offset="0.23" style="stop-color:#E33B35"/>
		<stop  offset="0.65" style="stop-color:#C32D31"/>
		<stop  offset="1" style="stop-color:#A41E2D"/>
	</linearGradient>
	<path class="st2" d="M27.8,35.2c1.3,1.6,2.9,3.2,4.7,4.4c1.9,1.4,2.8,1.8,2,2.9c-1.6,2.3-7.5,2.5-11.4,0.7
		c-7.7-3.6-10.6-9.9-10-16.9l0,0L27.8,35.2z"/>
	
		<linearGradient id="SVGID_2_" gradientUnits="userSpaceOnUse" x1="11.5672" y1="823.3572" x2="60.822" y2="761.6414" gradientTransform="matrix(1 0 0 1 0 -790)">
		<stop  offset="7.000000e-02" style="stop-color:#EF4136"/>
		<stop  offset="0.34" style="stop-color:#DD3834"/>
		<stop  offset="0.9" style="stop-color:#AE222E"/>
		<stop  offset="1" style="stop-color:#A41E2D"/>
	</linearGradient>
	<path class="st3" d="M22.3,25c-4.4-11.2,4.2-14.3,7.9-13.3c2.6,0.7,4.1,4.4,2.3,7.9c-1.7,3.2-5.6,4.9-10.3,5.4
		c-3,0.4-12.3,1.2-14.9-12.2c-0.5-2.3-0.5-3.3-1.8-3C2.6,10.2,0,15.6,0,19.9c0,14,12.3,19,25.9,17.4C36.5,36.1,43,28.2,44.6,23
		c1.9-5.8,1.6-16.6-7.2-21.1c-5.4-2.8-13-2.6-18.8,0.4C12.6,5.6,8,12.8,10.6,21c1.1,1.5,2.7,2.6,4.4,3.4C17,25.3,20.2,25.4,22.3,25z
		"/>
	
		<linearGradient id="SVGID_3_" gradientUnits="userSpaceOnUse" x1="26.6665" y1="792.6519" x2="19.4308" y2="821.8806" gradientTransform="matrix(1 0 0 1 0 -790)">
		<stop  offset="0.14" style="stop-color:#EF4136;stop-opacity:0"/>
		<stop  offset="0.3" style="stop-color:#C93431;stop-opacity:0.3"/>
		<stop  offset="0.5" style="stop-color:#A3272B;stop-opacity:0.6"/>
		<stop  offset="0.69" style="stop-color:#871E27;stop-opacity:0.82"/>
		<stop  offset="0.86" style="stop-color:#761825;stop-opacity:0.95"/>
		<stop  offset="1" style="stop-color:#701624"/>
	</linearGradient>
	<path class="st4" d="M22.3,25c-3.9-9.8,2.3-13.4,6.3-13.4c0.6,0,17.7-5.1,8.8-9.5c-2.6-1.3-5.5-2-8.5-2C25.4,0,21.8,0.8,18.6,2.4
		C12.6,5.6,8,12.8,10.6,21c1.1,1.5,2.7,2.6,4.4,3.4C17,25.3,20.2,25.4,22.3,25z"/>
</g>
</svg>
