<?xml version="1.0" encoding="utf-8"?>
<!-- Generator: Adobe Illustrator 23.0.3, SVG Export Plug-In . SVG Version: 6.00 Build 0)  -->
<svg version="1.1" id="Layer_1" xmlns="http://www.w3.org/2000/svg" xmlns:xlink="http://www.w3.org/1999/xlink" x="0px" y="0px"
	 viewBox="0 0 522.8 515" style="enable-background:new 0 0 522.8 515;" xml:space="preserve">
<style type="text/css">
	.st0{fill:url(#SVGID_1_);}
	.st1{fill:url(#SVGID_2_);}
	.st2{fill:url(#SVGID_3_);}
</style>
<g>
	
		<linearGradient id="SVGID_1_" gradientUnits="userSpaceOnUse" x1="-814.7903" y1="519.6005" x2="-762.421" y2="551.8067" gradientTransform="matrix(0.41 -0.91 -0.91 -0.41 1178.3553 -75.9324)">
		<stop  offset="0" style="stop-color:#EF4136"/>
		<stop  offset="0.23" style="stop-color:#E33B35"/>
		<stop  offset="0.65" style="stop-color:#C32D31"/>
		<stop  offset="1" style="stop-color:#A41E2D"/>
	</linearGradient>
	<path class="st0" d="M382.4,371.3c7.1,8.7,15.8,17.5,25.6,24c10.4,7.6,15.3,9.8,10.9,15.8c-8.7,12.6-40.9,13.6-62.1,3.8
		c-41.9-19.6-57.7-53.9-54.5-92.1l0,0L382.4,371.3z"/>
	
		<linearGradient id="SVGID_2_" gradientUnits="userSpaceOnUse" x1="294.0009" y1="1949.2869" x2="562.4101" y2="1612.9729" gradientTransform="matrix(1 0 0 1 0 -1588)">
		<stop  offset="7.000000e-02" style="stop-color:#EF4136"/>
		<stop  offset="0.34" style="stop-color:#DD3834"/>
		<stop  offset="0.9" style="stop-color:#AE222E"/>
		<stop  offset="1" style="stop-color:#A41E2D"/>
	</linearGradient>
	<path class="st1" d="M352.4,315.7c-24-61,22.9-78,43-72.5c14.2,3.8,22.4,24,12.6,43c-9.3,17.5-30.5,26.7-56.1,29.4
		c-16.4,2.2-67.1,6.5-81.2-66.5c-2.7-12.6-2.7-18-9.8-16.4c-15.8,2.2-30,31.6-30,55c0,76.3,67,103.5,141.1,94.8
		c57.8-6.5,93.2-49.6,101.9-77.9c10.4-31.6,8.7-90.5-39.2-115c-29.4-15.3-70.8-14.2-102.4,2.2c-32.7,18-57.7,57.2-43.6,101.9
		c6,8.2,14.7,14.2,24,18.5C323.6,317.3,341,317.9,352.4,315.7z"/>
	
		<linearGradient id="SVGID_3_" gradientUnits="userSpaceOnUse" x1="376.2992" y1="1781.929" x2="336.8689" y2="1941.2079" gradientTransform="matrix(1 0 0 1 0 -1588)">
		<stop  offset="0.14" style="stop-color:#EF4136;stop-opacity:0"/>
		<stop  offset="0.3" style="stop-color:#C93431;stop-opacity:0.3"/>
		<stop  offset="0.5" style="stop-color:#A3272B;stop-opacity:0.6"/>
		<stop  offset="0.69" style="stop-color:#871E27;stop-opacity:0.82"/>
		<stop  offset="0.86" style="stop-color:#761825;stop-opacity:0.95"/>
		<stop  offset="1" style="stop-color:#701624"/>
	</linearGradient>
	<path class="st2" d="M352.4,315.7c-21.3-53.4,12.6-73,34.3-73c3.3,0,96.5-27.8,47.9-51.7c-14.2-7.1-30-10.9-46.3-10.9
		c-19.1-0.5-38.7,3.8-56.1,12.6c-32.7,17.4-57.7,56.6-43.6,101.4c6,8.2,14.7,14.2,24,18.5C323.6,317.3,341,317.9,352.4,315.7z"/>
</g>
</svg>
